<?xml version="1.0" encoding="utf-8"?>
<!-- Generator: Adobe Illustrator 22.0.1, SVG Export Plug-In . SVG Version: 6.00 Build 0)  -->
<svg version="1.1" id="Layer_1" xmlns="http://www.w3.org/2000/svg" xmlns:xlink="http://www.w3.org/1999/xlink" x="0px" y="0px"
	 viewBox="0 0 140 350" style="enable-background:new 0 0 140 350;" xml:space="preserve">
<style type="text/css">
	.st0{fill:#F04141;}
	.st1{fill:#10DC60;}
	.st2{fill:#3880FF;}
	.st3{fill:#FFCE00;}
	.st4{fill:#7044FF;}
	.st5{fill:#11D3EA;}
	.st6{fill:#0CD1E8;}
</style>
<g>
	<path class="st0" d="M-35.8-21l96.2,54.5L-6.6,88l-69.1-39.9L-35.8-21z"/>
	<circle class="st1" cx="131.9" cy="250.5" r="57.5"/>
	<path class="st2" d="M-34.5,91.1l84.4,15.4l-69,69L-34.5,91.1z"/>
	<path class="st3" d="M273,106.6l46.3-26.8l46.3,26.8v53.5l-46.3,26.8L273,160.1V106.6z"/>
	<circle class="st4" cx="152.9" cy="91.1" r="38.5"/>
	<path class="st5" d="M87.8,143.9L87.8,143.9c1.4-2.4,4.5-3.3,7-0.9l69,39.8c2.4,0.4,3.3,3.5,1.9,6l0,0c-1.4,2.4-4.5,3.3-7,1.9
		l-69-39.8C87.3,149.5,86.4,146.3,87.8,143.9z"/>
	<path class="st4" d="M-44,197.3l84.9,8.1c5.5,0.5,9.5,5.4,9,10.9c0,0.2,0,0.3-0.1,0.5l-12.4,85.7c-0.8,5.5-5.9,9.3-11.3,8.5
		c-0.1,0-0.2,0-0.3,0l-86.4-15.2c-5.4-1-9.1-6.1-8.1-11.6l13.9-78.6C-53.9,200.3-49.2,196.8-44,197.3z"/>
	<circle class="st6" cx="137.7" cy="9.5" r="20.5"/>
</g>
</svg>
